# xmcd
#
# Track frame offsets: 
#        150
#        20520
#        40156
#        61874
#        82455
#        104005
#        122313
#        142706
#        163355
#        181372
#        203736
#        225590
#        244613
#        268919
#
# Disc length: 3879 seconds
#
# Revision: 0
# Processed by: cddbd v1.5.2PL0 Copyright (c) Steve Scherf et al.
# Submitted via: ExactAudioCopy v1.0b3
#
DISCID=c00f250e
DTITLE=香西かおり - 20周年記念 香西かおり シングルコレクション Disc 3 UPCH-20002-5
DYEAR=1900
DGENRE=Blues
TTITLE0=浮雲
TTITLE1=別れ雨
TTITLE2=望郷十年
TTITLE3=春の雪
TTITLE4=恋草紙 
TTITLE5=恋の泣きがら 
TTITLE6=浮寝草
TTITLE7=鴎の願い 
TTITLE8=楽しい人が好き
TTITLE9=片寄せ波 
TTITLE10=あなたへ 
TTITLE11=恋心
TTITLE12=氷雪の海 
TTITLE13=青空
EXTD=
EXTT0=
EXTT1=
EXTT2=
EXTT3=
EXTT4=
EXTT5=
EXTT6=
EXTT7=
EXTT8=
EXTT9=
EXTT10=
EXTT11=
EXTT12=
EXTT13=
PLAYORDER=
